PathFileType	4	(X/Y/Z)	TVC_58_Cal_02_0_static_RCNL2025.trc
DataRate	CameraRate	NumFrames	NumMarkers	Units	OrigDataRate	OrigDataStartFrame	OrigNumFrames
100	100	10	27	mm	100	13	102
Frame#	Time	R_Shoulder			L_Shoulder			C7			J_Notch			R_Elbow			L_Elbow			R_Wrist			L_Wrist			R_Asis			L_Asis			R_Psis			L_Psis			Sacral			Thoracic			Sternum			R_Thigh_Lateral			R_Knee_Lateral			R_Shank_Lateral			R_Ankle_Lateral			R_Heel			R_Toe			L_Thigh_Lateral			L_Knee_Lateral			L_Shank_Lateral			L_Ankle_Lateral			L_Heel			L_Toe		
		X1	Y1	Z1	X2	Y2	Z2	X3	Y3	Z3	X4	Y4	Z4	X5	Y5	Z5	X6	Y6	Z6	X7	Y7	Z7	X8	Y8	Z8	X9	Y9	Z9	X10	Y10	Z10	X11	Y11	Z11	X12	Y12	Z12	X13	Y13	Z13	X14	Y14	Z14	X15	Y15	Z15	X16	Y16	Z16	X17	Y17	Z17	X18	Y18	Z18	X19	Y19	Z19	X20	Y20	Z20	X21	Y21	Z21	X22	Y22	Z22	X23	Y23	Z23	X24	Y24	Z24	X25	Y25	Z25	X26	Y26	Z26	X27	Y27	Z27
13	0.12000000	-283.394623	1354.531494	-28.074829	-270.772064	1362.717041	-382.980225	-339.159698	1426.347412	-214.053192	-189.962173	1332.241089	-203.394241	-301.977478	1044.016846	54.815563	-321.559540	1053.571289	-458.039093	-217.503647	805.610413	87.476419	-262.591888	813.718262	-511.505615	-174.055496	910.223389	-59.006325	-165.306580	907.209290	-367.024933	-394.390961	965.733704	-151.944122	-396.316895	958.635071	-263.482056	-395.353928	962.184387	-207.713089	-375.897736	1119.751221	-211.866226	-84.856049	1082.670898	-211.829559	-227.593323	704.934082	31.626026	-236.399307	470.325256	-49.222446	-277.421173	273.052612	-2.619652	-308.400116	70.534966	-97.852257	-356.106689	61.301445	-156.232758	-178.896011	46.524437	-117.964111	-267.191254	676.177063	-447.084930	-236.265808	469.568481	-345.241974	-275.975983	286.512878	-404.274261	-322.654388	65.022888	-315.463074	-363.100800	57.593357	-262.015106	-184.261200	44.457188	-303.873291
14	0.13000000	-283.696472	1354.419800	-27.967318	-270.793640	1362.710327	-382.927765	-339.156525	1426.278076	-214.011627	-190.014465	1332.224854	-203.313065	-302.063904	1044.041870	54.884109	-321.576141	1053.498047	-457.988220	-217.546127	805.560913	87.514633	-262.600098	813.716492	-511.466248	-173.971588	910.190552	-58.921783	-165.298065	907.228210	-366.964325	-394.479065	965.770386	-151.956833	-396.475739	958.611694	-263.324860	-395.477402	962.191040	-207.640846	-375.907166	1119.710205	-211.834137	-84.838181	1082.666138	-211.665985	-227.599762	704.914490	31.789011	-236.435089	470.163635	-49.146137	-277.350098	273.016479	-2.749120	-308.325378	70.445869	-97.877792	-356.114136	61.280895	-156.194168	-178.894867	46.524273	-117.964790	-267.224426	676.176819	-447.048523	-236.271225	469.528412	-345.209137	-276.018646	286.518982	-404.234192	-322.708130	65.093849	-315.465515	-363.301392	57.646519	-261.976990	-184.269226	44.486271	-303.866394
15	0.14000000	-283.754608	1354.404175	-27.898483	-270.884125	1362.678589	-382.866974	-339.272156	1426.301025	-213.927490	-190.013702	1332.154297	-203.144897	-302.011414	1043.817139	54.674507	-321.602844	1053.537476	-457.856140	-217.579826	805.706726	87.726641	-262.542816	813.654083	-511.283142	-174.068298	910.100830	-58.936859	-165.374847	907.183167	-366.918121	-394.493622	965.752563	-151.972137	-396.418243	958.631287	-263.406067	-395.455933	962.191925	-207.689102	-375.977051	1119.695557	-211.800751	-84.836365	1082.679810	-211.554764	-227.548233	704.964111	31.723448	-236.316788	470.293793	-49.167095	-277.356506	272.907257	-2.459003	-308.450745	70.508255	-97.755302	-356.135742	61.324738	-156.178543	-178.895126	46.524441	-117.964668	-267.238647	676.177917	-446.994415	-236.218079	469.654327	-345.191040	-275.926697	286.614899	-404.084229	-322.678619	65.065018	-315.478699	-363.245819	57.811810	-262.010712	-184.309662	44.526798	-303.896851
16	0.15000000	-283.816071	1354.377563	-27.864616	-270.959625	1362.662354	-382.798096	-339.362976	1426.312988	-213.882202	-190.186066	1332.161011	-203.086716	-301.970093	1043.810547	54.775955	-321.638214	1053.505005	-457.748383	-217.577736	805.744263	87.840832	-262.558228	813.732178	-511.288055	-174.100876	910.264404	-58.945038	-165.377701	907.156433	-366.813446	-394.522736	965.765442	-151.913300	-396.480347	958.565247	-263.362122	-395.501541	962.165344	-207.637711	-375.987396	1119.670044	-211.770325	-84.951797	1082.667236	-211.444519	-227.551208	704.910278	31.762691	-236.400070	470.319580	-49.186012	-277.410767	272.810577	-2.488970	-308.343567	70.480789	-97.903091	-356.147980	61.283051	-156.176620	-178.895264	46.524475	-117.964592	-267.167847	676.165161	-446.978851	-236.273438	469.624908	-345.137115	-275.968323	286.531555	-404.147308	-322.669830	65.058258	-315.443237	-363.219574	57.822174	-262.021301	-184.274261	44.502850	-303.891296
17	0.16000000	-283.952484	1354.407349	-27.753946	-271.012512	1362.632080	-382.749451	-339.464355	1426.207275	-213.715530	-190.304993	1332.152954	-202.992401	-301.989014	1043.831665	54.798599	-321.665619	1053.468994	-457.677643	-217.609344	805.796021	87.904993	-262.591454	813.867676	-511.000519	-174.208115	910.205994	-58.817490	-165.439865	907.176331	-366.766510	-394.596344	965.721252	-151.886490	-396.671783	958.600464	-263.134705	-395.634064	962.160858	-207.510597	-376.087280	1119.620850	-211.689392	-85.004631	1082.661987	-211.364090	-227.581360	705.008423	31.760124	-236.376404	470.335876	-49.111343	-277.422699	272.895721	-2.548839	-308.443237	70.412445	-97.795204	-356.140381	61.295944	-156.179306	-178.848663	46.422836	-117.921654	-267.185760	676.208923	-446.952209	-236.291763	469.631958	-345.121185	-275.947754	286.547424	-404.076630	-322.683868	65.053848	-315.463959	-363.318024	57.850475	-261.956879	-184.318649	44.500359	-303.900024
18	0.17000000	-284.030212	1354.444214	-27.713123	-271.083069	1362.652466	-382.626862	-339.569519	1426.248169	-213.696198	-190.441269	1332.088013	-202.979202	-302.195831	1043.824341	54.949623	-321.666779	1053.346069	-457.627594	-217.792122	805.844696	88.054037	-262.619606	813.815613	-510.804443	-174.410034	910.116577	-58.857697	-165.474014	907.242310	-366.720154	-394.696289	965.689026	-151.798233	-396.681671	958.492737	-263.118195	-395.688980	962.090881	-207.458214	-376.219757	1119.681641	-211.594421	-85.059418	1082.715332	-211.253387	-227.520477	704.923340	31.861324	-236.432449	470.089966	-49.001793	-277.426239	272.773743	-2.585407	-308.384308	70.368637	-97.854446	-356.151550	61.325031	-156.177826	-178.838181	46.408188	-117.994690	-267.227997	676.222412	-446.942322	-236.290329	469.624847	-345.111084	-275.984863	286.520386	-404.146088	-322.684296	65.031326	-315.485718	-363.328918	57.815365	-261.959045	-184.355011	44.586903	-303.931000
19	0.18000000	-284.108459	1354.427368	-27.627451	-271.208618	1362.618774	-382.525574	-339.581268	1426.238892	-213.729874	-190.489761	1332.212036	-202.922867	-302.374298	1044.073730	55.180195	-321.712280	1053.367310	-457.445496	-217.757172	805.788147	88.125610	-262.465881	813.613434	-510.945251	-174.651184	910.102356	-58.814404	-165.537262	907.212219	-366.682770	-394.715607	965.691040	-151.797012	-396.733307	958.485657	-263.064026	-395.724457	962.088348	-207.430519	-376.200989	1119.644897	-211.488235	-85.047379	1082.752075	-211.264603	-227.658401	704.959229	31.990356	-236.366699	470.228638	-49.122272	-277.415924	272.844513	-2.632462	-308.348938	70.355286	-97.874947	-356.163330	61.298534	-156.156067	-178.911682	46.511093	-117.965828	-267.213104	676.199646	-446.872681	-236.353699	469.659027	-345.049927	-275.364777	286.599487	-403.476776	-322.683044	65.058144	-315.426666	-363.330994	57.755775	-261.943115	-184.271118	44.541656	-303.847839
20	0.19000000	-284.202637	1354.450806	-27.602583	-271.211121	1362.616455	-382.546692	-339.663513	1426.217041	-213.576447	-190.556107	1332.268188	-202.814423	-302.289215	1043.897217	55.127674	-321.796448	1053.333496	-457.343506	-217.955269	805.968506	88.309231	-262.674683	813.693268	-510.552322	-174.633041	910.179382	-58.737747	-165.564011	907.218872	-366.622131	-394.669922	965.637268	-151.693100	-396.692474	958.431396	-262.984802	-395.681198	962.034332	-207.338951	-376.260468	1119.640625	-211.421326	-85.086205	1082.829712	-211.181046	-227.803589	704.964722	32.070599	-236.363708	470.265503	-49.134377	-277.512390	272.827698	-2.490560	-308.309174	70.404297	-97.891083	-356.153687	61.349796	-156.173431	-178.913193	46.543144	-117.957863	-267.213562	676.242615	-446.888336	-236.381546	469.664001	-345.025665	-275.974823	286.159546	-404.120575	-322.704926	65.079201	-315.394623	-363.316162	57.794762	-261.955688	-184.316956	44.476959	-303.871063
21	0.20000000	-284.267456	1354.493774	-27.527021	-271.281189	1362.629761	-382.436462	-339.681519	1426.253662	-213.563019	-190.562546	1332.247681	-202.807892	-302.295135	1044.066162	55.249172	-321.813965	1053.223022	-457.256897	-217.944077	806.005127	88.457697	-263.330521	813.352783	-510.039490	-174.626236	910.090942	-58.659294	-165.624496	907.241821	-366.539368	-394.735504	965.642883	-151.649689	-396.755890	958.434021	-262.944214	-395.745697	962.038452	-207.296951	-376.342834	1119.652588	-211.382065	-85.175987	1082.829346	-211.058548	-227.773407	705.068848	32.131344	-236.379700	470.251465	-49.098740	-277.533081	272.758331	-2.400438	-308.346008	70.363564	-97.873405	-356.155304	61.358829	-156.177673	-178.964539	46.553066	-117.966774	-267.120941	676.202454	-446.816681	-236.380508	469.717743	-344.975800	-276.204987	286.432739	-404.129974	-322.725098	65.070854	-315.455109	-363.382812	57.684612	-261.925537	-184.323273	44.531937	-303.807434
22	0.21000000	-284.399017	1354.534302	-27.459583	-271.316040	1362.581787	-382.411957	-339.780121	1426.248657	-213.520691	-190.660233	1332.208130	-202.681854	-302.435944	1044.124878	55.351089	-321.823090	1053.268555	-457.108002	-218.027664	806.010468	88.507406	-263.465759	813.252533	-509.931808	-174.589294	910.141785	-58.518982	-165.641449	907.299500	-366.436554	-394.777832	965.693848	-151.619705	-396.766785	958.438477	-262.911011	-395.772308	962.066162	-207.265358	-376.306458	1119.652710	-211.271530	-85.367889	1082.824951	-211.001740	-227.965912	705.038574	32.445736	-236.541229	470.136505	-48.891739	-277.476288	272.757385	-2.370209	-308.423889	70.488289	-97.787453	-356.161560	61.315910	-156.152512	-178.928543	46.501015	-118.010315	-267.091156	676.223450	-446.834534	-236.370377	469.730865	-344.958313	-276.209534	286.552216	-404.037354	-322.694489	65.072571	-315.451721	-363.317902	57.803497	-261.961212	-184.328873	44.552696	-303.948547
